<svg width="34" height="34" viewBox="0 0 34 34" fill="none" xmlns="http://www.w3.org/2000/svg">
<g id="material-symbols:keyboard-double-arrow-down-rounded">
<path id="arrow2" d="M17.0001 14.3983L22.5251 8.90876C22.7848 8.64904 23.1097 8.51304 23.4998 8.50076C23.8898 8.48848 24.226 8.62448 24.5084 8.90876C24.7682 9.16848 24.898 9.49904 24.898 9.90043C24.898 10.3018 24.7682 10.6324 24.5084 10.8921L17.9918 17.4088C17.8501 17.5504 17.6966 17.651 17.5314 17.7105C17.3661 17.77 17.189 17.7993 17.0001 17.7983C16.8112 17.7983 16.6341 17.7691 16.4689 17.7105C16.3036 17.652 16.1501 17.5514 16.0084 17.4088L9.49177 10.8921C9.23205 10.6324 9.09605 10.308 9.08377 9.91884C9.07149 9.52973 9.20749 9.19304 9.49177 8.90876C9.75149 8.64904 10.082 8.51918 10.4834 8.51918C10.8848 8.51918 11.2154 8.64904 11.4751 8.90876L17.0001 14.3983Z" fill="white"/>
<path id="arrow1" d="M17.0001 20.8821L22.5251 15.3925C22.7848 15.1328 23.1097 14.9968 23.4998 14.9845C23.8898 14.9722 24.226 15.1082 24.5084 15.3925C24.7682 15.6522 24.898 15.9828 24.898 16.3842C24.898 16.7856 24.7682 17.1161 24.5084 17.3759L17.9918 23.8925C17.8501 24.0342 17.6966 24.1348 17.5314 24.1943C17.3661 24.2538 17.189 24.2831 17.0001 24.2821C16.8112 24.2821 16.6341 24.2528 16.4689 24.1943C16.3036 24.1357 16.1501 24.0351 16.0084 23.8925L9.49177 17.3759C9.23205 17.1161 9.09605 16.7917 9.08377 16.4026C9.07149 16.0135 9.20749 15.6768 9.49177 15.3925C9.75149 15.1328 10.082 15.0029 10.4834 15.0029C10.8848 15.0029 11.2154 15.1328 11.4751 15.3925L17.0001 20.8821Z" fill="white"/>
</g>
</svg>
