<svg width="19" height="19" viewBox="0 0 19 19" fill="none" xmlns="http://www.w3.org/2000/svg">
<g clip-path="url(#clip0_10769_1014)">
<path d="M6.91064 14.5896C3.07136 15.7413 3.07136 12.6699 1.53564 12.286M12.2856 16.8931V13.9215C12.3144 13.5554 12.265 13.1873 12.1405 12.8418C12.0161 12.4962 11.8195 12.1811 11.5639 11.9174C13.9749 11.6487 16.5089 10.7349 16.5089 6.54242C16.5087 5.47036 16.0963 4.43941 15.3571 3.66295C15.7071 2.72502 15.6824 1.68829 15.288 0.768132C15.288 0.768132 14.3819 0.499382 12.2856 1.90456C10.5257 1.42758 8.67057 1.42758 6.91064 1.90456C4.81439 0.499382 3.90832 0.768132 3.90832 0.768132C3.51393 1.68829 3.48918 2.72502 3.83922 3.66295C3.09449 4.44517 2.68169 5.48543 2.68743 6.56545C2.68743 10.7272 5.22136 11.641 7.63243 11.9405C7.3798 12.2015 7.18497 12.5128 7.06061 12.8541C6.93626 13.1955 6.88516 13.5591 6.91064 13.9215V16.8931" stroke="white" stroke-width="1.5" stroke-linecap="round" stroke-linejoin="round"/>
</g>
<defs>
<clipPath id="clip0_10769_1014">
<rect width="18.4286" height="18.4286" fill="white"/>
</clipPath>
</defs>
</svg>
