<svg width="19" height="19" viewBox="0 0 19 19" fill="none" xmlns="http://www.w3.org/2000/svg">
<path d="M13.0544 1.53589H5.37523C3.25468 1.53589 1.53564 3.25493 1.53564 5.37547V13.0546C1.53564 15.1752 3.25468 16.8942 5.37523 16.8942H13.0544C15.1749 16.8942 16.894 15.1752 16.894 13.0546V5.37547C16.894 3.25493 15.1749 1.53589 13.0544 1.53589Z" stroke="white" stroke-width="1.5" stroke-linecap="round" stroke-linejoin="round"/>
<path d="M12.2869 8.73121C12.3816 9.37031 12.2725 10.023 11.9749 10.5965C11.6773 11.17 11.2065 11.635 10.6294 11.9255C10.0523 12.216 9.39831 12.3171 8.76043 12.2144C8.12255 12.1118 7.53328 11.8106 7.07643 11.3538C6.61958 10.8969 6.31842 10.3077 6.21577 9.66977C6.11313 9.03189 6.21423 8.37789 6.50471 7.80079C6.79518 7.22368 7.26023 6.75286 7.83371 6.45529C8.40719 6.15773 9.0599 6.04857 9.69899 6.14334C10.3509 6.24 10.9544 6.54378 11.4204 7.00978C11.8864 7.47579 12.1902 8.07931 12.2869 8.73121Z" stroke="white" stroke-width="1.5" stroke-linecap="round" stroke-linejoin="round"/>
<path d="M13.4385 4.99146H13.4462" stroke="white" stroke-width="1.5" stroke-linecap="round" stroke-linejoin="round"/>
</svg>
