<svg width="48" height="50" viewBox="0 0 48 50" fill="none" xmlns="http://www.w3.org/2000/svg">
<g filter="url(#filter0_d_11169_2)">
<path d="M8.66061 19.6574C7.20333 20.8731 5.34722 25.2496 9.581 33.03L37.9585 33.1701C42.1922 25.3962 40.1676 22.643 38.7103 21.4283C39.4006 22.7104 40.3515 24.1006 37.9585 25.8821C35.5654 27.6636 35.9649 19.8775 35.9649 15.5586C35.8115 16.5709 34.4462 18.5131 32.0532 21.4283C29.5988 18.9314 28.5557 17.1378 32.0532 14.5465C28.6018 14.5464 25.3804 6.04369 25.6105 7.05593C25.3037 7.86575 26.899 14.3845 26.5309 14.5465C23.7697 14.3908 21.7364 11.6694 21.7364 9.564C21.7364 11.6712 21.8494 14.6275 20.8524 15.1678C20.4923 15.0093 19.9859 9.00233 19.6495 7.96884C19.527 8.96475 18.4226 14.3907 15.4863 14.3908C18.9837 16.9842 17.9406 18.7794 15.4863 21.2783C13.0932 18.3607 12.8785 16.4168 12.7251 15.4038C12.7251 19.7262 11.974 27.5189 9.581 25.7359C7.18798 23.9529 7.97032 20.9406 8.66061 19.6574Z" fill="white"/>
</g>
<path d="M38.199 35.0401C38.199 42.7933 31.7229 49.0785 23.7343 49.0785C15.7456 49.0785 9.26953 42.7933 9.26953 35.0401C9.26953 27.287 15.7456 21.0018 23.7343 21.0018C31.7229 21.0018 38.199 27.287 38.199 35.0401Z" fill="white"/>
<rect x="26.0859" y="29.9766" width="3.89158" height="10.178" rx="1.94579" fill="#000519"/>
<rect x="17.6523" y="29.9766" width="3.89158" height="10.178" rx="1.94579" fill="#000519"/>
<defs>
<filter id="filter0_d_11169_2" x="0.000413895" y="-1.33514e-05" width="47.466" height="40.1424" filterUnits="userSpaceOnUse" color-interpolation-filters="sRGB">
<feFlood flood-opacity="0" result="BackgroundImageFix"/>
<feColorMatrix in="SourceAlpha" type="matrix" values="0 0 0 0 0 0 0 0 0 0 0 0 0 0 0 0 0 0 127 0" result="hardAlpha"/>
<feOffset/>
<feGaussianBlur stdDeviation="3.48612"/>
<feComposite in2="hardAlpha" operator="out"/>
<feColorMatrix type="matrix" values="0 0 0 0 0.180392 0 0 0 0 0.360784 0 0 0 0 0.537255 0 0 0 1 0"/>
<feBlend mode="normal" in2="BackgroundImageFix" result="effect1_dropShadow_11169_2"/>
<feBlend mode="normal" in="SourceGraphic" in2="effect1_dropShadow_11169_2" result="shape"/>
</filter>
</defs>
</svg>
