<svg width="19" height="19" viewBox="0 0 19 19" fill="none" xmlns="http://www.w3.org/2000/svg">
<g clip-path="url(#clip0_10769_1018)">
<path d="M12.2859 6.14282C13.5077 6.14282 14.6796 6.62822 15.5436 7.49222C16.4076 8.35623 16.893 9.52807 16.893 10.75V16.125H13.8216V10.75C13.8216 10.3427 13.6598 9.95205 13.3718 9.66405C13.0838 9.37605 12.6932 9.21425 12.2859 9.21425C11.8786 9.21425 11.4879 9.37605 11.1999 9.66405C10.9119 9.95205 10.7501 10.3427 10.7501 10.75V16.125H7.67871V10.75C7.67871 9.52807 8.16411 8.35623 9.02811 7.49222C9.89212 6.62822 11.064 6.14282 12.2859 6.14282Z" stroke="white" stroke-width="1.5" stroke-linecap="round" stroke-linejoin="round"/>
<path d="M4.60707 6.91089H1.53564V16.1252H4.60707V6.91089Z" stroke="white" stroke-width="1.5" stroke-linecap="round" stroke-linejoin="round"/>
<path d="M3.07136 4.60732C3.91951 4.60732 4.60707 3.91975 4.60707 3.0716C4.60707 2.22345 3.91951 1.53589 3.07136 1.53589C2.22321 1.53589 1.53564 2.22345 1.53564 3.0716C1.53564 3.91975 2.22321 4.60732 3.07136 4.60732Z" stroke="white" stroke-width="1.5" stroke-linecap="round" stroke-linejoin="round"/>
</g>
<defs>
<clipPath id="clip0_10769_1018">
<rect width="18.4286" height="18.4286" fill="white"/>
</clipPath>
</defs>
</svg>
