<svg width="34" height="43" viewBox="0 0 34 43" fill="none" xmlns="http://www.w3.org/2000/svg">
<path d="M1.68796 12.6852C0.230677 13.9009 -1.62544 18.2774 2.60835 26.0578L30.9858 26.1979C35.2196 18.424 33.1949 15.6707 31.7377 14.4561C32.428 15.7382 33.3788 17.1283 30.9858 18.9099C28.5928 20.6914 28.9922 12.9052 28.9922 8.5864C28.8388 9.59863 27.4736 11.5408 25.0806 14.4561C22.6262 11.9592 21.5831 10.1655 25.0806 7.57424C21.6291 7.57419 18.4077 -0.928543 18.6378 0.0837059C18.331 0.893523 19.9264 7.41229 19.5582 7.57424C16.7971 7.41853 14.7638 4.69721 14.7638 2.59177C14.7638 4.69897 14.8768 7.65527 13.8797 8.1956C13.5197 8.03708 13.0132 2.0301 12.6769 0.996608C12.5543 1.99252 11.4499 7.41848 8.51359 7.41853C12.0111 10.012 10.968 11.8072 8.51359 14.3061C6.12058 11.3884 5.90583 9.44461 5.75243 8.43153C5.75243 12.754 5.00137 20.5467 2.60835 18.7637C0.215321 16.9806 0.997661 13.9684 1.68796 12.6852Z" fill="white"/>
<path d="M31.2264 28.0679C31.2264 35.8211 24.7503 42.1063 16.7616 42.1063C8.77296 42.1063 2.29688 35.8211 2.29688 28.0679C2.29688 20.3147 8.77296 14.0295 16.7616 14.0295C24.7503 14.0295 31.2264 20.3147 31.2264 28.0679Z" fill="white"/>
<rect x="19.1133" y="23.0043" width="3.89158" height="10.178" rx="1.94579" fill="#000519"/>
<rect x="10.6797" y="23.0043" width="3.89158" height="10.178" rx="1.94579" fill="#000519"/>
</svg>
