<svg width="12" height="19" viewBox="0 0 12 19" fill="none" xmlns="http://www.w3.org/2000/svg">
<path d="M5.80202 0.75C5.22781 0.75 4.67712 0.992888 4.27109 1.42523C3.86507 1.85758 3.63696 2.44396 3.63696 3.05539V9.20308C3.63696 9.81451 3.86507 10.4009 4.27109 10.8332C4.67712 11.2656 5.22781 11.5085 5.80202 11.5085C6.37623 11.5085 6.92692 11.2656 7.33295 10.8332C7.73898 10.4009 7.96708 9.81451 7.96708 9.20308V3.05539C7.96708 2.44396 7.73898 1.85758 7.33295 1.42523C6.92692 0.992888 6.37623 0.75 5.80202 0.75Z" stroke="white" stroke-width="1.5" stroke-linecap="round" stroke-linejoin="round"/>
<path d="M10.8536 7.66602V9.20294C10.8536 10.6296 10.3214 11.9978 9.37397 13.0066C8.42657 14.0154 7.14163 14.5822 5.8018 14.5822C4.46198 14.5822 3.17704 14.0154 2.22964 13.0066C1.28224 11.9978 0.75 10.6296 0.75 9.20294V7.66602" stroke="white" stroke-width="1.5" stroke-linecap="round" stroke-linejoin="round"/>
<path d="M5.802 14.5825V17.6564" stroke="white" stroke-width="1.5" stroke-linecap="round" stroke-linejoin="round"/>
<path d="M2.91504 17.6562H8.68853" stroke="white" stroke-width="1.5" stroke-linecap="round" stroke-linejoin="round"/>
</svg>
