<svg width="19" height="19" viewBox="0 0 19 19" fill="none" xmlns="http://www.w3.org/2000/svg">
<g clip-path="url(#clip0_10769_1010)">
<path d="M17.3089 4.93014C17.2177 4.56569 17.0319 4.23177 16.7704 3.9621C16.5088 3.69244 16.1807 3.49658 15.8192 3.3943C14.4984 3.07178 9.2151 3.07178 9.2151 3.07178C9.2151 3.07178 3.93183 3.07178 2.61102 3.42502C2.24952 3.52729 1.92141 3.72316 1.65983 3.99282C1.39826 4.26249 1.21248 4.59641 1.12126 4.96085C0.87953 6.30129 0.761287 7.66109 0.768017 9.02313C0.759401 10.3954 0.877651 11.7656 1.12126 13.1161C1.22182 13.4693 1.41177 13.7905 1.67273 14.0487C1.9337 14.307 2.25687 14.4936 2.61102 14.5905C3.93183 14.9438 9.2151 14.9438 9.2151 14.9438C9.2151 14.9438 14.4984 14.9438 15.8192 14.5905C16.1807 14.4883 16.5088 14.2924 16.7704 14.0227C17.0319 13.7531 17.2177 13.4191 17.3089 13.0547C17.5488 11.7243 17.667 10.3749 17.6622 9.02313C17.6708 7.65083 17.5526 6.28067 17.3089 4.93014Z" stroke="white" stroke-width="1.5" stroke-linecap="round" stroke-linejoin="round"/>
<path d="M7.4873 11.5341L11.9028 9.02305L7.4873 6.51196V11.5341Z" stroke="white" stroke-width="1.5" stroke-linecap="round" stroke-linejoin="round"/>
</g>
<defs>
<clipPath id="clip0_10769_1010">
<rect width="18.43" height="18.43" fill="white"/>
</clipPath>
</defs>
</svg>
